# xmcd CD database file
#
# Track frame offsets:
#	150
#	20867
#	41050
#	59892
#	80582
#	100767
#
# Disc length: 1593 seconds
#
# Revision: 13
# Processed by: cddbd v1.5.1PL2 Copyright (c) Steve Scherf et al.
# Submitted via: CDex 1.51
#
DISCID=52063706
DTITLE=修二と彰 - 青春アミーゴ
DYEAR=2005
DGENRE=JPop
TTITLE0=青春アミーゴ
TTITLE1=カラフル
TTITLE2=絆
TTITLE3=青春アミーゴ（オリジナルカラオケ）
TTITLE4=カラフル（オリジナルカラオケ）
TTITLE5=絆（オリジナルカラオケ）
EXTD=YEAR: 2005
EXTT0=
EXTT1=
EXTT2=
EXTT3=
EXTT4=
EXTT5=
PLAYORDER=
